<?xml version="1.0" encoding="UTF-8"?>
<!DOCTYPE svg PUBLIC "-//W3C//DTD SVG 1.1//EN" "http://www.w3.org/Graphics/SVG/1.1/DTD/svg11.dtd">
<!-- Creator: CorelDRAW 2020 (64-Bit) -->
<svg xmlns="http://www.w3.org/2000/svg" xml:space="preserve" width="10.7004mm" height="4.8529mm" version="1.1" shape-rendering="geometricPrecision" text-rendering="geometricPrecision" image-rendering="optimizeQuality" fill-rule="evenodd" clip-rule="evenodd"
viewBox="0 0 305.62 138.61"
 xmlns:xlink="http://www.w3.org/1999/xlink"
 xmlns:xodm="http://www.corel.com/coreldraw/odm/2003">
 <g id="Layer_x0020_1">
  <metadata id="CorelCorpID_0Corel-Layer"/>
  <path fill="#F58634" fill-rule="nonzero" stroke="#373435" stroke-width="5.71" stroke-miterlimit="22.9256" d="M131.63 70.35c16.51,-5.65 27.75,-13 30.44,-33.17 14.12,-0.58 26.65,-2.6 39.18,-8.76 11.88,-6.09 20.54,-14.04 24.25,-24.36 -12.86,3.21 -39.34,3.89 -56.91,2.87 -25.4,-1.43 -52.57,-3.17 -77.87,-3.8l0 9.81c11.27,2.7 10.12,8.79 10.12,9.64l0 30.78c0,0.85 -0.58,6.6 -10.12,8.46l0 9.81c10.12,2.03 10.12,6.93 10.12,7.78l0 23.14c-0.52,1.49 -0.79,3.07 -0.79,4.69 0,1.69 0.28,3.31 0.79,4.87l0 3.33c0,0.85 -0.29,7.27 -10.12,9.47l0 9.81c15.65,0.57 28.1,-0.52 37.99,-2.63 7.29,2.13 15.1,3.34 22.3,3.56l0 -9.98c-0.71,-0.11 -1.73,-0.27 -2.88,-0.47 14.33,-7.89 17.44,-18.62 17.44,-24.14 0,-15.38 -13.37,-25.25 -33.96,-30.72zm-53.91 -8.52c-9.54,-1.86 -10.12,-7.61 -10.12,-8.46l0 -30.78c0,-0.85 -1.16,-6.93 10.12,-9.64l0 -9.81c-34.11,0.85 -69.37,10.99 -71.39,33.66 -1.45,17.08 21.68,25.88 48.27,29.77l0 0.34c-30.35,4.06 -51.74,14.72 -51.74,34.17 0,9.81 9.83,36.03 74.86,33.66l0 -9.81c-9.83,-2.2 -10.12,-8.63 -10.12,-9.47l0 -36.03c0,-0.85 0,-5.75 10.12,-7.78l0 -9.81zm141.04 5.19l10.31 -11.7 0 -14.21 -0.42 0 -18.31 20.44c-12.52,-6.55 -29.44,-9.69 -47.94,-9.44l0 13.7c13.12,2.54 14.1,12.01 14.1,17.93l0 24.19c0,6.09 -0.99,15.39 -14.1,17.93l0 9.81c38.11,0.51 69.53,-13.36 69.53,-41.78 0,-11.22 -4.9,-20.17 -13.18,-26.87zm19.73 49.53c0,4.91 -0.42,5.58 -8.58,7.44 -3.35,0.34 -5.44,1.86 -5.44,4.74 0,5.24 8.17,5.08 10.05,5.08l52.13 0c1.89,0 10.05,0.17 10.05,-5.08 0,-2.88 -2.09,-4.4 -5.44,-4.74 -8.17,-1.86 -8.58,-2.54 -8.58,-7.44l0 -11.5 14.66 0c1.67,0 5.44,0 5.44,-4.9 0,-4.91 -3.77,-4.91 -5.44,-4.91l-14.66 0 0 -80.85c0,-8.12 -0.84,-7.1 -6.49,-7.1l-11.72 0c-4.4,0 -5.86,2.2 -9.42,5.41l-16.54 18.27 0 85.59z"/>
 </g>
</svg>
