<?xml version="1.0" encoding="UTF-8"?>
<!DOCTYPE svg PUBLIC "-//W3C//DTD SVG 1.1//EN" "http://www.w3.org/Graphics/SVG/1.1/DTD/svg11.dtd">
<!-- Creator: CorelDRAW 2020 (64-Bit) -->
<svg xmlns="http://www.w3.org/2000/svg" xml:space="preserve" width="4.8065mm" height="4.7766mm" version="1.1" shape-rendering="geometricPrecision" text-rendering="geometricPrecision" image-rendering="optimizeQuality" fill-rule="evenodd" clip-rule="evenodd"
viewBox="0 0 75.65 75.18"
 xmlns:xlink="http://www.w3.org/1999/xlink"
 xmlns:xodm="http://www.corel.com/coreldraw/odm/2003">
 <g id="Layer_x0020_1">
  <metadata id="CorelCorpID_0Corel-Layer"/>
  <path fill="#1079EF" d="M-0 37.35c0,7.79 1.78,14.25 5.88,20.8 1.33,2.12 2.97,4.19 4.72,5.98 4.16,4.28 8.63,7.14 14.32,9.31 1.49,0.57 4.69,1.5 6.38,1.69 0.23,0.03 0.38,0.04 0.56,-0.04 0.14,-0.46 0.04,-20.28 0.04,-22.98 0,-0.98 0.08,-2.37 -0.02,-3.3 -3.18,-0.04 -6.4,0.03 -9.59,-0.02 -0.06,-1.13 -0.08,-10.61 0.06,-10.95l9.54 -0.01c0.24,-5.14 -0.9,-12.05 1.98,-16.66 1.35,-2.16 2.56,-3.44 4.7,-4.61 3.71,-2.03 7.89,-1.94 12.06,-1.53 1.31,0.13 2.89,0.23 4.04,0.52 0.07,2.91 0.02,6.3 0.01,9.27 -3.09,0.32 -8.13,-0.97 -10.13,2.59 -0.65,1.15 -0.79,2.26 -0.79,3.79 0,2.13 -0.04,4.54 0.01,6.64l10.45 0.01 -1.65 10.93 -8.79 0.02 -0.01 26.38c1.45,0.04 5.43,-1.21 6.88,-1.71 5.98,-2.07 11.28,-5.89 15.42,-10.42 5.98,-6.54 9.59,-15.86 9.59,-24.88l0 -0.63c0,-15.36 -9.48,-28.35 -22.28,-34.18 -5.65,-2.57 -13.09,-3.97 -19.84,-3.1 -2.33,0.3 -3.72,0.54 -5.88,1.15 -2,0.56 -3.33,1.09 -5.21,1.88 -3.95,1.66 -8.42,4.8 -11.18,7.63 -3.39,3.49 -5.63,6.49 -7.78,11.03 -1.99,4.2 -3.48,9.86 -3.48,15.4z"/>
 </g>
</svg>
