<?xml version="1.0" encoding="UTF-8"?>
<!DOCTYPE svg PUBLIC "-//W3C//DTD SVG 1.1//EN" "http://www.w3.org/Graphics/SVG/1.1/DTD/svg11.dtd">
<!-- Creator: CorelDRAW 2020 (64-Bit) -->
<svg xmlns="http://www.w3.org/2000/svg" xml:space="preserve" width="4.5798mm" height="5.2318mm" version="1.1" shape-rendering="geometricPrecision" text-rendering="geometricPrecision" image-rendering="optimizeQuality" fill-rule="evenodd" clip-rule="evenodd"
viewBox="0 0 39.51 45.14"
 xmlns:xlink="http://www.w3.org/1999/xlink"
 xmlns:xodm="http://www.corel.com/coreldraw/odm/2003">
 <g id="Layer_x0020_1">
  <metadata id="CorelCorpID_0Corel-Layer"/>
  <path fill="#718FC8" d="M39.51 43.44c0,0.93 -0.63,1.7 -1.4,1.7l-16.33 0 0 -6.61c0,-0.19 -0.13,-0.34 -0.28,-0.34l-3.52 0c-0.15,0 -0.28,0.15 -0.28,0.34l0 6.61 -16.33 0c-0.77,0 -1.39,-0.76 -1.39,-1.7 0,-8.33 0,-16.67 0,-25 0,-0.73 0.41,-1.09 0.85,-1.33l17.99 -9.85 0 -3.83 -1.97 0 0 -1.73 1.97 0 0 -1.71 1.82 0 0 1.71 1.97 0 0 1.73 -1.97 0 0 3.95 17.99 9.73c0.44,0.24 0.85,0.6 0.85,1.33 0,8.33 0,16.66 0,25z"/>
 </g>
</svg>
